<svg xmlns="http://www.w3.org/2000/svg" xmlns:xlink="http://www.w3.org/1999/xlink" width="25.1" height="36.844" viewBox="0 0 25.1 36.844">
  <defs>
    <style>
      .cls-1 {
        fill: url(#linear-gradient);
      }
    </style>
    <linearGradient id="linear-gradient" x1="0.185" y1="0.062" x2="0.778" y2="0.965" gradientUnits="objectBoundingBox">
      <stop offset="0" stop-color="#fee600"/>
      <stop offset="1" stop-color="#edc40a"/>
    </linearGradient>
  </defs>
  <g id="home_icon_qiandao_btn" transform="translate(709.181 -167.078)">
    <path id="路径_3" data-name="路径 3" class="cls-1" d="M-692.24,196.448c-1.329,1.551-2.316,2.579-2.477,2.76a2.678,2.678,0,0,1-1.894.826,2.635,2.635,0,0,1-1.873-.786c-.846-.886-1.672-1.813-2.478-2.759-2.921.644-4.915,1.994-4.915,3.485,0,2.175,4.149,3.948,9.266,3.948s9.267-1.793,9.267-3.948c-.021-1.511-2.015-2.861-4.9-3.526Zm-4.391,2.7a.93.93,0,0,0,.745-.3c.484-.523,11.8-12.429,11.8-19.136a12.648,12.648,0,0,0-12.55-12.631,12.608,12.608,0,0,0-12.55,12.631c0,6.728,11.321,18.653,11.805,19.136a.93.93,0,0,0,.745.3Zm-5.1-19.439a5.107,5.107,0,0,1,5.1-5.117,5.119,5.119,0,0,1,5.1,5.117,5.081,5.081,0,0,1-5.1,5.116,5.094,5.094,0,0,1-5.1-5.116Zm0,0"/>
  </g>
</svg>
