<svg xmlns="http://www.w3.org/2000/svg" width="19.031" height="18.649" viewBox="0 0 19.031 18.649">
  <defs>
    <style>
      .cls-1 {
        fill: #fff;
      }
    </style>
  </defs>
  <g id="home_icon_shiping" transform="translate(684.227 -296.125)">
    <path id="路径_1120" data-name="路径 1120" class="cls-1" d="M-674.911,296.125h.78c.023,0,.046.01.07.013.335.034.673.05,1,.106a9.2,9.2,0,0,1,6.1,3.763,9.1,9.1,0,0,1,1.713,4.54c.017.171.03.342.045.513v.781c0,.031-.01.061-.013.093-.04.361-.059.726-.122,1.082a9.171,9.171,0,0,1-3.2,5.576,9.159,9.159,0,0,1-5.269,2.154c-.1.008-.2.019-.3.029h-7.788a.487.487,0,0,0-.061-.014,2.527,2.527,0,0,1-2.181-1.823c-.044-.16-.066-.326-.1-.489v-.414a.27.27,0,0,0,.013-.045,2.507,2.507,0,0,1,1.453-2.045c.018-.009.034-.021.052-.031l-.032-.063a9.132,9.132,0,0,1-.984-5.86,9.13,9.13,0,0,1,3.805-6.138,9.075,9.075,0,0,1,4.5-1.682c.169-.017.337-.03.507-.045Zm-1.862,9.182h0q0,1.715,0,3.431a.5.5,0,0,0,.781.454c.776-.464,1.565-.908,2.348-1.36l3.557-2.052a.474.474,0,0,0,.231-.243.6.6,0,0,0-.241-.745c-1.408-.8-2.81-1.617-4.214-2.428q-.858-.5-1.716-.99a.477.477,0,0,0-.725.328,1.033,1.033,0,0,0-.02.2q0,1.7,0,3.408Zm0,0" transform="translate(0)"/>
  </g>
</svg>
