<svg xmlns="http://www.w3.org/2000/svg" viewBox="0 0 22 22">
  <defs>
    <style>
      .cls-1 {
        fill: #ff4f40;
      }

      .cls-2 {
        fill: #fce3e3;
      }
    </style>
  </defs>
  <g id="home" transform="translate(-37 -841)">
    <g id="组_571" data-name="组 571" transform="translate(15 4)">
      <path id="路径_198" data-name="路径 198" class="cls-1" d="M35.353,60.573H24.059a.634.634,0,0,1-.659-.6V48.712a.578.578,0,0,1,.241-.464l8.163-5.99a.709.709,0,0,1,.827,0l8.163,5.99a.576.576,0,0,1,.241.464V59.941a.662.662,0,0,1-1.319,0V49l-7.5-5.5-7.5,5.5V59.375H35.334a.634.634,0,0,1,.659.6.606.606,0,0,1-.641.6Z" transform="translate(0.773 798.427)"/>
      <path id="路径_199" data-name="路径 199" class="cls-1" d="M152.1,260.8" transform="translate(-115.975 598.2)"/>
      <path id="路径_200" data-name="路径 200" class="cls-1" d="M21.349,8.763a.74.74,0,0,1-.418-.135L11,1.4,1.084,8.628a.7.7,0,0,1-.929-.093.559.559,0,0,1,.1-.844L10.594.158a.709.709,0,0,1,.827,0L21.757,7.7a.559.559,0,0,1,.1.844.7.7,0,0,1-.511.219Z" transform="translate(21.993 836.975)"/>
      <path id="路径_201" data-name="路径 201" class="cls-1" d="M229.8,111.6" transform="translate(-186.459 734.813)"/>
      <path id="路径_202" data-name="路径 202" class="cls-2" d="M97.2,91.089a1.762,1.762,0,0,0,.984,1.552,2.136,2.136,0,0,0,1.969,0,1.762,1.762,0,0,0,.984-1.552,1.978,1.978,0,0,0-3.938,0Zm0,0" transform="translate(-66.174 755.232)"/>
      <path id="路径_203" data-name="路径 203" class="cls-1" d="M92.728,87.075a2.4,2.4,0,1,1,2.628-2.388,2.52,2.52,0,0,1-2.628,2.388Zm0-3.577a1.2,1.2,0,1,0,1.309,1.19,1.252,1.252,0,0,0-1.309-1.19Zm0,0" transform="translate(-59.733 761.641)"/>
      <rect id="矩形_305" data-name="矩形 305" class="cls-2" width="6.241" height="7.163" transform="translate(29.875 851.239)"/>
      <path id="路径_204" data-name="路径 204" class="cls-1" d="M84.61,170.06h-6.25a.634.634,0,0,1-.659-.6V162.3a.634.634,0,0,1,.659-.6H84.6a.634.634,0,0,1,.659.6v7.163a.619.619,0,0,1-.65.6Z" transform="translate(-48.485 688.94)"/>
      <rect id="矩形_306" data-name="矩形 306" class="cls-2" width="4.922" height="5.956" transform="translate(30.544 851.838)"/>
      <path id="路径_205" data-name="路径 205" class="cls-1" d="M181.928,27.028a.634.634,0,0,1-.659-.6V23.2h-1.31a.6.6,0,1,1,0-1.2h1.969a.634.634,0,0,1,.659.6v3.83a.628.628,0,0,1-.659.6Z" transform="translate(-140.649 816.854)"/>
      <path id="路径_206" data-name="路径 206" class="cls-1" d="M207.6,89.6" transform="translate(-166.32 754.957)"/>
    </g>
  </g>
</svg>
