<svg xmlns="http://www.w3.org/2000/svg" xmlns:xlink="http://www.w3.org/1999/xlink" width="20.418" height="19.538" viewBox="0 0 20.418 19.538">
  <defs>
    <style>
      .cls-1 {
        fill: #fff;
      }

      .cls-2 {
        clip-path: url(#clip-path);
      }
    </style>
    <clipPath id="clip-path">
      <rect id="矩形_429" data-name="矩形 429" class="cls-1" width="20.418" height="19.538"/>
    </clipPath>
  </defs>
  <g id="home_icon_xinwen" transform="translate(809.332 -215)">
    <g id="组_675" data-name="组 675" transform="translate(-809.332 215)">
      <g id="组_674" data-name="组 674" class="cls-2" transform="translate(0 0)">
        <path id="路径_1118" data-name="路径 1118" class="cls-1" d="M-790.345,221.51l-1.063-.151-4.546,4.131a.388.388,0,0,1-.548-.026.388.388,0,0,1,.026-.548l4.069-3.7-.448-.064a4.273,4.273,0,0,1-.868-.237l-5.113,4.645a.856.856,0,0,1-1.208-.058.855.855,0,0,1,.058-1.209l4.69-4.261a5.291,5.291,0,0,1-1.521-1.74l-1.129-2.27c-.677-1.359-1.777-1.356-2.444.008l-1.114,2.277a5.9,5.9,0,0,1-3.946,2.885l-2.506.373c-1.5.223-1.838,1.27-.748,2.326l1.82,1.764a5.9,5.9,0,0,1,1.525,4.644l-.42,2.5c-.253,1.5.639,2.141,1.981,1.43l2.241-1.186a5.9,5.9,0,0,1,4.888-.015l2.247,1.173c1.346.7,2.234.053,1.973-1.443l-.436-2.5a5.9,5.9,0,0,1,1.5-4.653l1.81-1.775c1.082-1.062.739-2.108-.764-2.322Zm0,0" transform="translate(809.342 -215.004)"/>
      </g>
    </g>
  </g>
</svg>
