<svg xmlns="http://www.w3.org/2000/svg" width="18.937" height="18.937" viewBox="0 0 18.937 18.937">
  <defs>
    <style>
      .cls-1 {
        fill: #fff;
      }
    </style>
  </defs>
  <g id="home_icon_rili" transform="translate(638.969 -235.669)">
    <path id="路径_1117" data-name="路径 1117" class="cls-1" d="M-622.169,236.924h-2.911v-1.255h-1.269v1.255h-6.3v-1.255h-1.269v1.255h-2.911a2.137,2.137,0,0,0-2.137,2.137v.615l18.937.021v-.636a2.137,2.137,0,0,0-2.137-2.137Zm-16.8,15.545a2.137,2.137,0,0,0,2.137,2.137h14.663a2.137,2.137,0,0,0,2.137-2.137V240.733l-18.937-.042Zm6.948-8.16,2.839-1.061h.947v8.834h-2.208v-6.838h-1.578Zm0,0"/>
  </g>
</svg>
