<svg xmlns="http://www.w3.org/2000/svg" xmlns:xlink="http://www.w3.org/1999/xlink" width="29" height="34.284" viewBox="0 0 29 34.284">
  <defs>
    <style>
      .cls-1 {
        fill: url(#linear-gradient);
      }

      .cls-2 {
        clip-path: url(#clip-path);
      }
    </style>
    <linearGradient id="linear-gradient" x1="0.116" y1="-1.74" x2="0.876" y2="0.755" gradientUnits="objectBoundingBox">
      <stop offset="0" stop-color="#fee600"/>
      <stop offset="1" stop-color="#edc40a"/>
    </linearGradient>
    <clipPath id="clip-path">
      <rect id="矩形_12" data-name="矩形 12" class="cls-1" width="29" height="34.284" transform="translate(-654 168.358)"/>
    </clipPath>
  </defs>
  <g id="home_icon_fengxian_btn" transform="translate(654 -168.358)">
    <g id="组_382" data-name="组 382">
      <g id="组_381" data-name="组 381" class="cls-2">
        <path id="路径_4" data-name="路径 4" class="cls-1" d="M-639.5,202.6a22.862,22.862,0,0,1-9.935-2.062c-2.946-1.466-4.568-3.512-4.568-5.766a5.041,5.041,0,0,1,1.15-3.136,1.22,1.22,0,0,1,1.137-.472,1.224,1.224,0,0,1,.971.756,1.226,1.226,0,0,1-.178,1.219,2.658,2.658,0,0,0-.634,1.633c0,1.258,1.171,2.56,3.212,3.575a20.347,20.347,0,0,0,8.845,1.807,20.366,20.366,0,0,0,8.846-1.807c2.041-1.013,3.211-2.318,3.211-3.575a2.665,2.665,0,0,0-.642-1.643,1.222,1.222,0,0,1-.172-1.211,1.222,1.222,0,0,1,.962-.754,1.221,1.221,0,0,1,1.135.456A5.042,5.042,0,0,1-625,194.772c0,2.253-1.623,4.3-4.568,5.766A22.838,22.838,0,0,1-639.5,202.6Zm0,0"/>
        <path id="路径_5" data-name="路径 5" class="cls-1" d="M-627.821,171.222c-5.041-.1-8.78-3.408-10.154-4.394a2.4,2.4,0,0,0-2.81.006c-1.359.984-5.064,4.285-10.1,4.388a1.621,1.621,0,0,0-1.578,1.613v12.2a13.28,13.28,0,0,0,3.021,7.066,16.986,16.986,0,0,0,9.786,6.3,1.225,1.225,0,0,0,.3.031h.03a1.241,1.241,0,0,0,.272-.031,16.984,16.984,0,0,0,9.789-6.295,13.27,13.27,0,0,0,3.022-7.065v-12.2a1.621,1.621,0,0,0-1.579-1.613Zm-13.376,4.94a1.748,1.748,0,0,1,1.748-1.747,1.747,1.747,0,0,1,1.747,1.747v9.374a1.747,1.747,0,0,1-1.747,1.747,1.748,1.748,0,0,1-1.748-1.747Zm1.748,16.46a1.951,1.951,0,0,1-1.8-1.2,1.951,1.951,0,0,1,.423-2.125,1.951,1.951,0,0,1,2.125-.423,1.951,1.951,0,0,1,1.2,1.8,1.949,1.949,0,0,1-1.949,1.949Zm0,0"/>
      </g>
    </g>
  </g>
</svg>
