<svg xmlns="http://www.w3.org/2000/svg" xmlns:xlink="http://www.w3.org/1999/xlink" width="20.638" height="18.957" viewBox="0 0 20.638 18.957">
  <defs>
    <style>
      .cls-1 {
        fill: #fff;
      }

      .cls-2 {
        clip-path: url(#clip-path);
      }
    </style>
    <clipPath id="clip-path">
      <rect id="矩形_425" data-name="矩形 425" class="cls-1" width="20.638" height="18.957"/>
    </clipPath>
  </defs>
  <g id="home_icon_hangqing" transform="translate(705.185 -244.985)">
    <g id="组_665" data-name="组 665" transform="translate(-705.185 244.985)">
      <g id="组_664" data-name="组 664" class="cls-2">
        <path id="路径_1116" data-name="路径 1116" class="cls-1" d="M-685.409,262.2h-.86V249.584a1.147,1.147,0,0,0-1.147-1.147h-2.292a1.147,1.147,0,0,0-1.147,1.147V262.2h-1.721V246.144A1.147,1.147,0,0,0-693.724,245h-2.292a1.147,1.147,0,0,0-1.147,1.147V262.2h-1.721v-9.174a1.147,1.147,0,0,0-1.147-1.147h-2.292a1.146,1.146,0,0,0-1.147,1.147V262.2h-.859a.861.861,0,0,0-.86.86.861.861,0,0,0,.86.86h18.922a.861.861,0,0,0,.86-.86.861.861,0,0,0-.86-.86Zm0,0" transform="translate(705.187 -244.99)"/>
      </g>
    </g>
  </g>
</svg>
