<svg xmlns="http://www.w3.org/2000/svg" xmlns:xlink="http://www.w3.org/1999/xlink" width="29.967" height="30" viewBox="0 0 29.967 30">
  <defs>
    <style>
      .cls-1 {
        fill: url(#linear-gradient);
      }

      .cls-2 {
        clip-path: url(#clip-path);
      }
    </style>
    <linearGradient id="linear-gradient" x1="0.074" x2="0.894" y2="1" gradientUnits="objectBoundingBox">
      <stop offset="0" stop-color="#fee600"/>
      <stop offset="1" stop-color="#edc40a"/>
    </linearGradient>
    <clipPath id="clip-path">
      <rect id="矩形_13" data-name="矩形 13" class="cls-1" width="29.967" height="30" transform="translate(-597.483 170.5)"/>
    </clipPath>
  </defs>
  <g id="home_icon_yaowen_btn" transform="translate(597.483 -170.5)">
    <g id="组_385" data-name="组 385">
      <g id="组_384" data-name="组 384" class="cls-2">
        <path id="路径_6" data-name="路径 6" class="cls-1" d="M-568.6,181.205a1.074,1.074,0,0,0-.757.313,1.073,1.073,0,0,0-.314.758v13.907a1.071,1.071,0,0,0,1.071,1.071,1.071,1.071,0,0,0,1.072-1.071V182.268a1.07,1.07,0,0,0-1.072-1.063Zm-3.208,16.046V173.714a3.219,3.219,0,0,0-3.211-3.214h-19.258a3.223,3.223,0,0,0-3.214,3.214v23.537a3.219,3.219,0,0,0,3.214,3.211H-571.8a9.074,9.074,0,0,0,2.945-.528h-.267a2.66,2.66,0,0,1-2.68-2.63Zm-21.406-20.331a2.151,2.151,0,0,1,2.143-2.143h3.214a2.152,2.152,0,0,1,2.142,2.143v3.213a2.151,2.151,0,0,1-2.142,2.143h-3.214a2.151,2.151,0,0,1-2.143-2.143Zm16.054,18.2h-14.982a1.074,1.074,0,0,1-1.074-1.074,1.074,1.074,0,0,1,1.074-1.073h14.982a1.073,1.073,0,0,1,1.073,1.073,1.073,1.073,0,0,1-1.073,1.074Zm0-6.42h-14.982a1.072,1.072,0,0,1-1.073-1.072,1.072,1.072,0,0,1,1.073-1.073h14.982a1.075,1.075,0,0,1,1.028,1.073,1.074,1.074,0,0,1-1.028,1.072Zm0,0"/>
      </g>
    </g>
  </g>
</svg>
