<svg xmlns="http://www.w3.org/2000/svg" xmlns:xlink="http://www.w3.org/1999/xlink" width="28.24" height="32.974" viewBox="0 0 28.24 32.974">
  <defs>
    <style>
      .cls-1 {
        fill: url(#linear-gradient);
      }

      .cls-2 {
        clip-path: url(#clip-path);
      }
    </style>
    <linearGradient id="linear-gradient" x1="0.118" y1="0.039" x2="0.936" y2="0.967" gradientUnits="objectBoundingBox">
      <stop offset="0" stop-color="#fee600"/>
      <stop offset="1" stop-color="#edc40a"/>
    </linearGradient>
    <clipPath id="clip-path">
      <rect id="矩形_620" data-name="矩形 620" class="cls-1" width="28.24" height="32.974" transform="translate(-538.62 169.013)"/>
    </clipPath>
  </defs>
  <g id="home_icon_xinren_btn" transform="translate(538.62 -169.013)">
    <g id="组_731" data-name="组 731">
      <g id="组_730" data-name="组 730" class="cls-2">
        <path id="路径_1165" data-name="路径 1165" class="cls-1" d="M-511.5,173.2a1.031,1.031,0,0,0-1.086.973,1.009,1.009,0,0,0,0,.123v23.056a2.343,2.343,0,0,1-2.17,2.189h-19.1c-1.3,0-2.821-1.092-2.821-2.189v-2.409c0-1.1,1.3-1.752,2.6-1.752h18.229a1.029,1.029,0,0,0,1.085-.971.858.858,0,0,0,0-.124V172.976c0-2.409-1.736-3.942-4.34-3.942H-533.85c-2.387,0-4.775,1.314-4.775,3.942v25.247a4.637,4.637,0,0,0,4.124,3.724h19.748a4.331,4.331,0,0,0,4.34-4.161V174.291a1.168,1.168,0,0,0-1.085-1.1Zm-4.124,22.181h-17.794a1.1,1.1,0,0,0-1.058,1.095,1.1,1.1,0,0,0,1.058,1.1h17.794a1.1,1.1,0,0,0,1.059-1.132,1.1,1.1,0,0,0-1.059-1.059Zm0,0"/>
      </g>
    </g>
  </g>
</svg>
