<svg id="Icon_xing_1" xmlns="http://www.w3.org/2000/svg" xmlns:xlink="http://www.w3.org/1999/xlink" width="10.779" height="10.662" viewBox="0 0 10.779 10.662">
  <defs>
    <style>
      .cls-1 {
        fill: #525252;
      }

      .cls-2 {
        clip-path: url(#clip-path);
      }
    </style>
    <clipPath id="clip-path">
      <rect id="矩形_423" data-name="矩形 423" class="cls-1" width="10.779" height="10.662"/>
    </clipPath>
  </defs>
  <g id="组_652" data-name="组 652">
    <g id="组_651" data-name="组 651" class="cls-2" transform="translate(0 0)">
      <path id="路径_1115" data-name="路径 1115" class="cls-1" d="M-467.342,487.26l-2.349,1.289a.868.868,0,0,1-.919-.052.868.868,0,0,1-.355-.85l.458-2.784-1.972-2.006a.867.867,0,0,1-.2-.883.867.867,0,0,1,.693-.583l2.693-.408,1.171-2.476a.868.868,0,0,1,.784-.5.867.867,0,0,1,.784.5l1.171,2.476,2.692.408a.867.867,0,0,1,.693.583.867.867,0,0,1-.2.883l-1.973,2.006.457,2.784a.867.867,0,0,1-.354.849.867.867,0,0,1-.919.052Zm0,0" transform="translate(472.726 -478.006)"/>
    </g>
  </g>
</svg>
