<svg xmlns="http://www.w3.org/2000/svg" width="23.052" height="23.868" viewBox="0 0 23.052 23.868">
  <defs>
    <style>
      .cls-1 {
        fill: #bfbfbf;
        opacity: 0.5;
      }
    </style>
  </defs>
  <path id="tab_icon_xuexi_hover_" data-name="tab_icon_xuexi_hover " class="cls-1" d="M-702.981,398.566h-19.2a1.008,1.008,0,0,0-1.007,1.006v.849a.142.142,0,0,1-.143.143h-.693a1.008,1.008,0,0,0-1.007,1.007v2.489a1.007,1.007,0,0,0,1,1.006h.7a.143.143,0,0,1,.143.144v2.524a.142.142,0,0,1-.143.144h-.693a1.008,1.008,0,0,0-1.007,1.006v2.6a1.008,1.008,0,0,0,1.007,1.006h.693a.143.143,0,0,1,.143.144V415.1a.143.143,0,0,1-.143.144h-.693a1.008,1.008,0,0,0-1.007,1.006v2.57a1.008,1.008,0,0,0,1.007,1.006h.693a.143.143,0,0,1,.143.144v1.461a1.008,1.008,0,0,0,1.007,1.006h19.2a1.008,1.008,0,0,0,1.007-1.006V399.572A1.008,1.008,0,0,0-702.981,398.566Zm-16.249,21.755h-1.365a.807.807,0,0,1-.805-.805v-2.329a.231.231,0,0,1,.23-.23.231.231,0,0,1,.23.23v2.329a.346.346,0,0,0,.345.345h1.365a.23.23,0,0,1,.23.23A.231.231,0,0,1-719.23,420.321Zm-2.208-4.071a.288.288,0,0,1,.288-.288.287.287,0,0,1,.287.288.287.287,0,0,1-.143.249.29.29,0,0,1-.288,0A.288.288,0,0,1-721.438,416.25Zm12.244-1.691-8.739-.042a.43.43,0,0,1-.429-.433.432.432,0,0,1,.434-.429l8.738.042a.43.43,0,0,1,.429.433A.431.431,0,0,1-709.194,414.559Zm.017-3.676-8.738-.041a.43.43,0,0,1-.429-.433.43.43,0,0,1,.433-.429l8.738.041a.43.43,0,0,1,.429.433A.429.429,0,0,1-709.177,410.883Zm-9.15-4.161a.431.431,0,0,1,.433-.429l4.65.022a.431.431,0,0,1,.429.433.43.43,0,0,1-.433.429l-4.65-.022A.43.43,0,0,1-718.327,406.722Zm15.49,14.708a.142.142,0,0,1-.144.144h-1.837a.574.574,0,0,0,.026-.172v-18.65a.577.577,0,0,0-.575-.575h-18.612a.564.564,0,0,0-.184.032v-.638a.142.142,0,0,1,.144-.144h.693a1.008,1.008,0,0,0,1.006-1.006v-.849a.142.142,0,0,1,.144-.143h19.2a.142.142,0,0,1,.144.143Z" transform="translate(725.026 -398.566)"/>
</svg>
