<svg xmlns="http://www.w3.org/2000/svg" xmlns:xlink="http://www.w3.org/1999/xlink" width="21.208" height="24.818" viewBox="0 0 21.208 24.818">
  <defs>
    <style>
      .cls-1 {
        fill: url(#linear-gradient);
      }
    </style>
    <linearGradient id="linear-gradient" x1="0.07" y1="0.065" x2="0.922" y2="1" gradientUnits="objectBoundingBox">
      <stop offset="0" stop-color="#fee600"/>
      <stop offset="1" stop-color="#edc40a"/>
    </linearGradient>
  </defs>
  <g id="tab_icon_zixun_sel" transform="translate(758.104 -398.091)">
    <path id="路径_1124" data-name="路径 1124" class="cls-1" d="M-738.266,398.091h-14.165c-3.13,0-5.673,1.943-5.673,4.335v19.437a1.243,1.243,0,0,0,1.37,1.046h14.165c3.13,0,5.673-1.946,5.673-4.335V399.137A1.243,1.243,0,0,0-738.266,398.091Zm.2,20.483c0,1.895-2.019,3.438-4.5,3.438h-14.165c-.11,0-.2-.066-.2-.149V402.426c0-1.895,2.019-3.438,4.5-3.438h14.165c.11,0,.2.066.2.149Z"/>
    <path id="路径_1125" data-name="路径 1125" class="cls-1" d="M-744.555,414.779"/>
    <path id="路径_1126" data-name="路径 1126" class="cls-1" d="M-740.645,400.913h-11.68c-2.315,0-4.192,1.567-4.192,3.5v17.5a.6.6,0,0,0,.645.538h11.68c2.315,0,4.192-1.567,4.192-3.5v-17.5A.6.6,0,0,0-740.645,400.913Zm-12.832,5.308h4.841a.447.447,0,0,1,.448.449.447.447,0,0,1-.448.448h-4.841a.448.448,0,0,1-.449-.448A.448.448,0,0,1-753.477,406.221Zm.972,14.775h-1.842a.84.84,0,0,1-.838-.838v-2.371a.24.24,0,0,1,.239-.239.241.241,0,0,1,.24.239v2.371a.359.359,0,0,0,.359.359h1.842a.24.24,0,0,1,.24.239A.241.241,0,0,1-752.505,421Zm8.126-6.217h-9.1a.448.448,0,0,1-.449-.449.448.448,0,0,1,.449-.448h9.1a.447.447,0,0,1,.448.448A.447.447,0,0,1-744.379,414.779Zm0-3.824h-9.1a.449.449,0,0,1-.449-.449.449.449,0,0,1,.449-.449h9.1a.448.448,0,0,1,.448.449A.448.448,0,0,1-744.379,410.955Zm3.185-5.709a.24.24,0,0,1-.24.239.24.24,0,0,1-.239-.239v-2.407a.24.24,0,0,1,.239-.239.24.24,0,0,1,.24.239Zm-.24-3.047a.3.3,0,0,1-.3-.3.3.3,0,0,1,.3-.3.3.3,0,0,1,.3.3A.3.3,0,0,1-741.434,402.2Z"/>
  </g>
</svg>
