<svg xmlns="http://www.w3.org/2000/svg" xmlns:xlink="http://www.w3.org/1999/xlink" width="22.077" height="24.961" viewBox="0 0 22.077 24.961">
  <defs>
    <style>
      .cls-1 {
        fill: url(#linear-gradient);
      }
    </style>
    <linearGradient id="linear-gradient" y1="0.123" x2="1.336" y2="1.973" gradientUnits="objectBoundingBox">
      <stop offset="0" stop-color="#fee600"/>
      <stop offset="1" stop-color="#edc40a"/>
    </linearGradient>
  </defs>
  <g id="tab_icon_wode_sel" transform="translate(690.556 -398.003)">
    <path id="路径_1128" data-name="路径 1128" class="cls-1" d="M-683.994,408.292a6.085,6.085,0,0,0,4.446,1.925,6.114,6.114,0,0,0,6.107-6.107A6.115,6.115,0,0,0-679.548,398a6.116,6.116,0,0,0-6.107,6.107,6.055,6.055,0,0,0,.361,2.07A4.972,4.972,0,0,0-683.994,408.292Zm4.392.213a3.981,3.981,0,0,1-2.458-.869.243.243,0,0,1-.03-.34l0,0h0a.239.239,0,0,1,.337-.03l0,0a3.563,3.563,0,0,0,4.432-.021.238.238,0,0,1,.333.063.241.241,0,0,1-.06.334,5.655,5.655,0,0,1-.694.406A4.186,4.186,0,0,1-679.6,408.505Zm.054-9.6a5.21,5.21,0,0,1,5.2,5.2,5.212,5.212,0,0,1-4.025,5.069,4.959,4.959,0,0,0,2.782-4.458,4.965,4.965,0,0,0-4.964-4.964,4.926,4.926,0,0,0-2.954.975A5.2,5.2,0,0,1-679.548,398.906Z"/>
    <path id="路径_1129" data-name="路径 1129" class="cls-1" d="M-671.813,414.6a10.988,10.988,0,0,0-7.705-3.132,10.986,10.986,0,0,0-7.7,3.132,10.959,10.959,0,0,0-3.334,7.6.738.738,0,0,0,.211.541.756.756,0,0,0,.539.229h20.574a.753.753,0,0,0,.539-.229.732.732,0,0,0,.213-.541A10.978,10.978,0,0,0-671.813,414.6Zm-.6,7.466v-.033c-.132-5.183-4.046-9.341-8.851-9.341a8.073,8.073,0,0,0-1.083.072,10.341,10.341,0,0,1,2.831-.394,10.086,10.086,0,0,1,10.133,9.7Z"/>
  </g>
</svg>
