<svg xmlns="http://www.w3.org/2000/svg" width="23.638" height="24.52" viewBox="0 0 23.638 24.52">
  <defs>
    <style>
      .cls-1 {
        fill: #bfbfbf;
        opacity: 0.5;
      }
    </style>
  </defs>
  <path id="tab_icon_shouye_hover_" data-name="tab_icon_shouye_hover " class="cls-1" d="M-770.054,407.572l-10.793-9.085a1.044,1.044,0,0,0-1.348,0l-10.751,9.088a1.04,1.04,0,0,0-.308,1.16,1.035,1.035,0,0,0,.983.688h1.118v12.291a1.048,1.048,0,0,0,1.047,1.046h6.072l5.008,0h6.084a1.047,1.047,0,0,0,1.046-1.046V409.423h1.166a1.036,1.036,0,0,0,.984-.688A1.042,1.042,0,0,0-770.054,407.572Zm-17.909,14.45h-2.095a.24.24,0,0,1-.239-.24v-2.816a.239.239,0,0,1,.239-.239.24.24,0,0,1,.239.239v2.577h1.856a.239.239,0,0,1,.24.239A.241.241,0,0,1-787.963,422.022Zm2.132-17.433-2.858,2.538a.243.243,0,0,1-.158.06.24.24,0,0,1-.18-.081.24.24,0,0,1,.021-.338l2.858-2.538a.24.24,0,0,1,.338.021A.24.24,0,0,1-785.831,404.589Zm.864-.74a.3.3,0,0,1-.224.2.3.3,0,0,1-.284-.094.3.3,0,0,1-.06-.293.3.3,0,0,1,.224-.2.3.3,0,0,1,.284.1A.3.3,0,0,1-784.967,403.849Zm12.177,17.859a.148.148,0,0,1-.149.149h-2.225a.383.383,0,0,0,.006-.1l-.065-12.335h2.433Zm2.2-13.284a.139.139,0,0,1-.141.1h-4.5a.569.569,0,0,0-.114-.161l-8.018-7.714,1.743-1.474a.144.144,0,0,1,.095-.036.147.147,0,0,1,.1.036l10.793,9.086A.138.138,0,0,1-770.586,408.424Z" transform="translate(793.319 -398.24)"/>
</svg>
